<svg version="1.1" xmlns="http://www.w3.org/2000/svg" xmlns:xlink="http://www.w3.org/1999/xlink" width="800" height="800"><defs/><g transform="scale(2,2)"><g id="background-cfc1563b"><rect fill="white" stroke="none" x="0" y="0" width="400" height="400" class="dcg-svg-background"/></g><g id="background-images-cfc1563b"/><g id="graphpaper-cfc1563b"><g id="grid-cfc1563b"><g><path fill="none" stroke="rgb(0,0,0)" class="dcg-svg-minor-gridline" paint-order="fill stroke markers" d=" M 13.5 0 L 13.5 400" stroke-opacity="0.2" stroke-miterlimit="10" stroke-dasharray=""/><path fill="none" stroke="rgb(0,0,0)" class="dcg-svg-minor-gridline" paint-order="fill stroke markers" d=" M 33.5 0 L 33.5 400" stroke-opacity="0.2" stroke-miterlimit="10" stroke-dasharray=""/><path fill="none" stroke="rgb(0,0,0)" class="dcg-svg-minor-gridline" paint-order="fill stroke markers" d=" M 53.5 0 L 53.5 400" stroke-opacity="0.2" stroke-miterlimit="10" stroke-dasharray=""/><path fill="none" stroke="rgb(0,0,0)" class="dcg-svg-minor-gridline" paint-order="fill stroke markers" d=" M 73.5 0 L 73.5 400" stroke-opacity="0.2" stroke-miterlimit="10" stroke-dasharray=""/><path fill="none" stroke="rgb(0,0,0)" class="dcg-svg-minor-gridline" paint-order="fill stroke markers" d=" M 93.5 0 L 93.5 400" stroke-opacity="0.2" stroke-miterlimit="10" stroke-dasharray=""/><path fill="none" stroke="rgb(0,0,0)" class="dcg-svg-minor-gridline" paint-order="fill stroke markers" d=" M 113.5 0 L 113.5 400" stroke-opacity="0.2" stroke-miterlimit="10" stroke-dasharray=""/><path fill="none" stroke="rgb(0,0,0)" class="dcg-svg-minor-gridline" paint-order="fill stroke markers" d=" M 133.5 0 L 133.5 400" stroke-opacity="0.2" stroke-miterlimit="10" stroke-dasharray=""/><path fill="none" stroke="rgb(0,0,0)" class="dcg-svg-minor-gridline" paint-order="fill stroke markers" d=" M 153.5 0 L 153.5 400" stroke-opacity="0.2" stroke-miterlimit="10" stroke-dasharray=""/><path fill="none" stroke="rgb(0,0,0)" class="dcg-svg-minor-gridline" paint-order="fill stroke markers" d=" M 193.5 0 L 193.5 400" stroke-opacity="0.2" stroke-miterlimit="10" stroke-dasharray=""/><path fill="none" stroke="rgb(0,0,0)" class="dcg-svg-minor-gridline" paint-order="fill stroke markers" d=" M 213.5 0 L 213.5 400" stroke-opacity="0.2" stroke-miterlimit="10" stroke-dasharray=""/><path fill="none" stroke="rgb(0,0,0)" class="dcg-svg-minor-gridline" paint-order="fill stroke markers" d=" M 233.5 0 L 233.5 400" stroke-opacity="0.2" stroke-miterlimit="10" stroke-dasharray=""/><path fill="none" stroke="rgb(0,0,0)" class="dcg-svg-minor-gridline" paint-order="fill stroke markers" d=" M 253.5 0 L 253.5 400" stroke-opacity="0.2" stroke-miterlimit="10" stroke-dasharray=""/><path fill="none" stroke="rgb(0,0,0)" class="dcg-svg-minor-gridline" paint-order="fill stroke markers" d=" M 273.5 0 L 273.5 400" stroke-opacity="0.2" stroke-miterlimit="10" stroke-dasharray=""/><path fill="none" stroke="rgb(0,0,0)" class="dcg-svg-minor-gridline" paint-order="fill stroke markers" d=" M 293.5 0 L 293.5 400" stroke-opacity="0.2" stroke-miterlimit="10" stroke-dasharray=""/><path fill="none" stroke="rgb(0,0,0)" class="dcg-svg-minor-gridline" paint-order="fill stroke markers" d=" M 313.5 0 L 313.5 400" stroke-opacity="0.2" stroke-miterlimit="10" stroke-dasharray=""/><path fill="none" stroke="rgb(0,0,0)" class="dcg-svg-minor-gridline" paint-order="fill stroke markers" d=" M 333.5 0 L 333.5 400" stroke-opacity="0.2" stroke-miterlimit="10" stroke-dasharray=""/><path fill="none" stroke="rgb(0,0,0)" class="dcg-svg-minor-gridline" paint-order="fill stroke markers" d=" M 353.5 0 L 353.5 400" stroke-opacity="0.2" stroke-miterlimit="10" stroke-dasharray=""/><path fill="none" stroke="rgb(0,0,0)" class="dcg-svg-minor-gridline" paint-order="fill stroke markers" d=" M 373.5 0 L 373.5 400" stroke-opacity="0.2" stroke-miterlimit="10" stroke-dasharray=""/><path fill="none" stroke="rgb(0,0,0)" class="dcg-svg-minor-gridline" paint-order="fill stroke markers" d=" M 393.5 0 L 393.5 400" stroke-opacity="0.2" stroke-miterlimit="10" stroke-dasharray=""/><path fill="none" stroke="rgb(0,0,0)" class="dcg-svg-minor-gridline" paint-order="fill stroke markers" d=" M 0 388.5 L 400 388.5" stroke-opacity="0.2" stroke-miterlimit="10" stroke-dasharray=""/><path fill="none" stroke="rgb(0,0,0)" class="dcg-svg-minor-gridline" paint-order="fill stroke markers" d=" M 0 368.5 L 400 368.5" stroke-opacity="0.2" stroke-miterlimit="10" stroke-dasharray=""/><path fill="none" stroke="rgb(0,0,0)" class="dcg-svg-minor-gridline" paint-order="fill stroke markers" d=" M 0 348.5 L 400 348.5" stroke-opacity="0.2" stroke-miterlimit="10" stroke-dasharray=""/><path fill="none" stroke="rgb(0,0,0)" class="dcg-svg-minor-gridline" paint-order="fill stroke markers" d=" M 0 328.5 L 400 328.5" stroke-opacity="0.2" stroke-miterlimit="10" stroke-dasharray=""/><path fill="none" stroke="rgb(0,0,0)" class="dcg-svg-minor-gridline" paint-order="fill stroke markers" d=" M 0 308.5 L 400 308.5" stroke-opacity="0.2" stroke-miterlimit="10" stroke-dasharray=""/><path fill="none" stroke="rgb(0,0,0)" class="dcg-svg-minor-gridline" paint-order="fill stroke markers" d=" M 0 288.5 L 400 288.5" stroke-opacity="0.2" stroke-miterlimit="10" stroke-dasharray=""/><path fill="none" stroke="rgb(0,0,0)" class="dcg-svg-minor-gridline" paint-order="fill stroke markers" d=" M 0 268.5 L 400 268.5" stroke-opacity="0.2" stroke-miterlimit="10" stroke-dasharray=""/><path fill="none" stroke="rgb(0,0,0)" class="dcg-svg-minor-gridline" paint-order="fill stroke markers" d=" M 0 248.5 L 400 248.5" stroke-opacity="0.2" stroke-miterlimit="10" stroke-dasharray=""/><path fill="none" stroke="rgb(0,0,0)" class="dcg-svg-minor-gridline" paint-order="fill stroke markers" d=" M 0 228.5 L 400 228.5" stroke-opacity="0.2" stroke-miterlimit="10" stroke-dasharray=""/><path fill="none" stroke="rgb(0,0,0)" class="dcg-svg-minor-gridline" paint-order="fill stroke markers" d=" M 0 208.5 L 400 208.5" stroke-opacity="0.2" stroke-miterlimit="10" stroke-dasharray=""/><path fill="none" stroke="rgb(0,0,0)" class="dcg-svg-minor-gridline" paint-order="fill stroke markers" d=" M 0 168.5 L 400 168.5" stroke-opacity="0.2" stroke-miterlimit="10" stroke-dasharray=""/><path fill="none" stroke="rgb(0,0,0)" class="dcg-svg-minor-gridline" paint-order="fill stroke markers" d=" M 0 148.5 L 400 148.5" stroke-opacity="0.2" stroke-miterlimit="10" stroke-dasharray=""/><path fill="none" stroke="rgb(0,0,0)" class="dcg-svg-minor-gridline" paint-order="fill stroke markers" d=" M 0 128.5 L 400 128.5" stroke-opacity="0.2" stroke-miterlimit="10" stroke-dasharray=""/><path fill="none" stroke="rgb(0,0,0)" class="dcg-svg-minor-gridline" paint-order="fill stroke markers" d=" M 0 108.5 L 400 108.5" stroke-opacity="0.2" stroke-miterlimit="10" stroke-dasharray=""/><path fill="none" stroke="rgb(0,0,0)" class="dcg-svg-minor-gridline" paint-order="fill stroke markers" d=" M 0 88.5 L 400 88.5" stroke-opacity="0.2" stroke-miterlimit="10" stroke-dasharray=""/><path fill="none" stroke="rgb(0,0,0)" class="dcg-svg-minor-gridline" paint-order="fill stroke markers" d=" M 0 68.5 L 400 68.5" stroke-opacity="0.2" stroke-miterlimit="10" stroke-dasharray=""/><path fill="none" stroke="rgb(0,0,0)" class="dcg-svg-minor-gridline" paint-order="fill stroke markers" d=" M 0 48.5 L 400 48.5" stroke-opacity="0.2" stroke-miterlimit="10" stroke-dasharray=""/><path fill="none" stroke="rgb(0,0,0)" class="dcg-svg-minor-gridline" paint-order="fill stroke markers" d=" M 0 28.5 L 400 28.5" stroke-opacity="0.2" stroke-miterlimit="10" stroke-dasharray=""/><path fill="none" stroke="rgb(0,0,0)" class="dcg-svg-minor-gridline" paint-order="fill stroke markers" d=" M 0 8.5 L 400 8.5" stroke-opacity="0.2" stroke-miterlimit="10" stroke-dasharray=""/><path fill="none" stroke="rgb(0,0,0)" class="dcg-svg-major-gridline" paint-order="fill stroke markers" d=" M 13.5 0 L 13.5 400" stroke-opacity="0.2500000000000001" stroke-miterlimit="10" stroke-dasharray=""/><path fill="none" stroke="rgb(0,0,0)" class="dcg-svg-major-gridline" paint-order="fill stroke markers" d=" M 93.5 0 L 93.5 400" stroke-opacity="0.2500000000000001" stroke-miterlimit="10" stroke-dasharray=""/><path fill="none" stroke="rgb(0,0,0)" class="dcg-svg-major-gridline" paint-order="fill stroke markers" d=" M 253.5 0 L 253.5 400" stroke-opacity="0.2500000000000001" stroke-miterlimit="10" stroke-dasharray=""/><path fill="none" stroke="rgb(0,0,0)" class="dcg-svg-major-gridline" paint-order="fill stroke markers" d=" M 333.5 0 L 333.5 400" stroke-opacity="0.2500000000000001" stroke-miterlimit="10" stroke-dasharray=""/><path fill="none" stroke="rgb(0,0,0)" class="dcg-svg-major-gridline" paint-order="fill stroke markers" d=" M 0 348.5 L 400 348.5" stroke-opacity="0.2500000000000001" stroke-miterlimit="10" stroke-dasharray=""/><path fill="none" stroke="rgb(0,0,0)" class="dcg-svg-major-gridline" paint-order="fill stroke markers" d=" M 0 268.5 L 400 268.5" stroke-opacity="0.2500000000000001" stroke-miterlimit="10" stroke-dasharray=""/><path fill="none" stroke="rgb(0,0,0)" class="dcg-svg-major-gridline" paint-order="fill stroke markers" d=" M 0 108.5 L 400 108.5" stroke-opacity="0.2500000000000001" stroke-miterlimit="10" stroke-dasharray=""/><path fill="none" stroke="rgb(0,0,0)" class="dcg-svg-major-gridline" paint-order="fill stroke markers" d=" M 0 28.5 L 400 28.5" stroke-opacity="0.2500000000000001" stroke-miterlimit="10" stroke-dasharray=""/></g></g><g id="axis-cfc1563b"><g id="yaxis-cfc1563b"><title>Y axis</title><g><path fill="none" stroke="rgb(0,0,0)" class="dcg-svg-axis-line" paint-order="fill stroke markers" d=" M 173 0 L 173 400" stroke-opacity="0.9" stroke-miterlimit="10" stroke-width="1.5" stroke-dasharray=""/></g></g><g id="xaxis-cfc1563b"><title>X axis</title><g><path fill="none" stroke="rgb(0,0,0)" class="dcg-svg-axis-line" paint-order="fill stroke markers" d=" M 0 188 L 400 188" stroke-opacity="0.9" stroke-miterlimit="10" stroke-width="1.5" stroke-dasharray=""/></g></g><g><g class="dcg-svg-axis-value"><text fill="none" stroke="#ffffff" font-family="Arial" font-size="14px" font-style="normal" font-weight="normal" text-decoration="normal" x="164.42586376469444" y="204.15090039740124" text-anchor="middle" stroke-miterlimit="2" stroke-width="3" stroke-dasharray="">0</text><text fill="#000000" stroke="none" font-family="Arial" font-size="14px" font-style="normal" font-weight="normal" text-decoration="normal" x="164.42586376469444" y="204.15090039740124" text-anchor="middle">0</text></g><g class="dcg-svg-axis-value"><text fill="none" stroke="#ffffff" font-family="Arial" font-size="14px" font-style="normal" font-weight="normal" text-decoration="normal" x="10.98787548344444" y="204.15090039740124" text-anchor="middle" stroke-miterlimit="2" stroke-width="3" stroke-dasharray="">-4</text><text fill="#000000" stroke="none" font-family="Arial" font-size="14px" font-style="normal" font-weight="normal" text-decoration="normal" x="10.98787548344444" y="204.15090039740124" text-anchor="middle">-4</text></g><g class="dcg-svg-axis-value"><text fill="none" stroke="#ffffff" font-family="Arial" font-size="14px" font-style="normal" font-weight="normal" text-decoration="normal" x="90.98787548344444" y="204.15090039740124" text-anchor="middle" stroke-miterlimit="2" stroke-width="3" stroke-dasharray="">-2</text><text fill="#000000" stroke="none" font-family="Arial" font-size="14px" font-style="normal" font-weight="normal" text-decoration="normal" x="90.98787548344444" y="204.15090039740124" text-anchor="middle">-2</text></g><g class="dcg-svg-axis-value"><text fill="none" stroke="#ffffff" font-family="Arial" font-size="14px" font-style="normal" font-weight="normal" text-decoration="normal" x="253.31893017094444" y="204.15090039740124" text-anchor="middle" stroke-miterlimit="2" stroke-width="3" stroke-dasharray="">2</text><text fill="#000000" stroke="none" font-family="Arial" font-size="14px" font-style="normal" font-weight="normal" text-decoration="normal" x="253.31893017094444" y="204.15090039740124" text-anchor="middle">2</text></g><g class="dcg-svg-axis-value"><text fill="none" stroke="#ffffff" font-family="Arial" font-size="14px" font-style="normal" font-weight="normal" text-decoration="normal" x="333.31893017094444" y="204.15090039740124" text-anchor="middle" stroke-miterlimit="2" stroke-width="3" stroke-dasharray="">4</text><text fill="#000000" stroke="none" font-family="Arial" font-size="14px" font-style="normal" font-weight="normal" text-decoration="normal" x="333.31893017094444" y="204.15090039740124" text-anchor="middle">4</text></g><g class="dcg-svg-axis-value"><text fill="none" stroke="#ffffff" font-family="Arial" font-size="14px" font-style="normal" font-weight="normal" text-decoration="normal" x="162.09480907719444" y="352.15090039740124" text-anchor="middle" stroke-miterlimit="2" stroke-width="3" stroke-dasharray="">-4</text><text fill="#000000" stroke="none" font-family="Arial" font-size="14px" font-style="normal" font-weight="normal" text-decoration="normal" x="162.09480907719444" y="352.15090039740124" text-anchor="middle">-4</text></g><g class="dcg-svg-axis-value"><text fill="none" stroke="#ffffff" font-family="Arial" font-size="14px" font-style="normal" font-weight="normal" text-decoration="normal" x="162.09480907719444" y="272.15090039740124" text-anchor="middle" stroke-miterlimit="2" stroke-width="3" stroke-dasharray="">-2</text><text fill="#000000" stroke="none" font-family="Arial" font-size="14px" font-style="normal" font-weight="normal" text-decoration="normal" x="162.09480907719444" y="272.15090039740124" text-anchor="middle">-2</text></g><g class="dcg-svg-axis-value"><text fill="none" stroke="#ffffff" font-family="Arial" font-size="14px" font-style="normal" font-weight="normal" text-decoration="normal" x="164.42586376469444" y="112.15090039740126" text-anchor="middle" stroke-miterlimit="2" stroke-width="3" stroke-dasharray="">2</text><text fill="#000000" stroke="none" font-family="Arial" font-size="14px" font-style="normal" font-weight="normal" text-decoration="normal" x="164.42586376469444" y="112.15090039740126" text-anchor="middle">2</text></g><g class="dcg-svg-axis-value"><text fill="none" stroke="#ffffff" font-family="Arial" font-size="14px" font-style="normal" font-weight="normal" text-decoration="normal" x="164.42586376469444" y="32.15090039740125" text-anchor="middle" stroke-miterlimit="2" stroke-width="3" stroke-dasharray="">4</text><text fill="#000000" stroke="none" font-family="Arial" font-size="14px" font-style="normal" font-weight="normal" text-decoration="normal" x="164.42586376469444" y="32.15090039740125" text-anchor="middle">4</text></g></g></g></g><g id="expressions-cfc1563b"><g id="sketch-cfc1563b"><title>Expression 1</title><path fill="#c74440" stroke="none" paint-order="stroke fill markers" d="" fill-opacity="0.4"/><g><path fill="none" stroke="#c74440" class="dcg-svg-curve" paint-order="fill stroke markers" d=" M 0 222.96126995462532 L 0 222.96126995462532 L 1.5625 220.2479149008483 L 3.3203125 216.6241007150881 L 5.17578125 212.21664445037396 L 7.32421875 206.48771513854942 L 9.9609375 198.77047261980556 L 14.453125 184.7844327769852 L 18.359375 172.9182513066824 L 20.89843749999997 165.91284151820716 L 22.94921875000003 160.8917291463783 L 24.8046875 156.95794396450066 L 26.46484375 154.00002474412 L 28.02734375 151.7479343682998 L 29.4921875 150.13596779149046 L 30.76171875 149.14694966691005 L 31.93359375 148.5794334175504 L 33.0078125 148.3548413096655 L 34.08203125 148.41472014735365 L 35.15625 148.75864395871312 L 36.23046875 149.3841661050709 L 37.40234375 150.38243390116736 L 38.76953125 151.95247466382898 L 40.33203125 154.25881700260874 L 41.9921875 157.27009629291246 L 43.75 161.0322513287134 L 45.703125 165.8185152463232 L 47.94921875 171.96909655773948 L 50.78125 180.42322066684866 L 59.66796875 207.47259666032411 L 61.9140625 213.34067029490785 L 63.8671875 217.8184990565873 L 65.625 221.25935924501843 L 67.1875 223.7938131995557 L 68.75 225.79505242774746 L 70.1171875 227.0848649616558 L 71.2890625 227.8356467665792 L 72.36328125 228.23028374487177 L 73.4375 228.34116597446805 L 74.51171875 228.1675046505744 L 75.5859375 227.7105351820139 L 76.7578125 226.8927845445801 L 78.02734375 225.6389162134043 L 79.4921875 223.73276052303365 L 81.0546875 221.18452206548787 L 82.71484375 217.9367827198257 L 84.5703125 213.71527465046117 L 86.62109375 208.4276439031553 L 89.0625 201.46719191378853 L 92.48046875 190.9751012228287 L 98.2421875 173.2585818106962 L 100.78125 166.2186140841652 L 102.83203125000001 161.16066152288494 L 104.6875 157.1875161099994 L 106.34765625 154.19022744809564 L 107.91015625 151.89812100389554 L 109.375 150.24657589244507 L 110.64453125 149.22205408879552 L 111.81640625 148.62109486912004 L 112.890625 148.36552992250193 L 113.96484375 148.3943598837629 L 115.0390625 148.70737965951935 L 116.11328125 149.30236245923376 L 117.28515625 150.26798571298406 L 118.5546875 151.67747367058314 L 120.01953125 153.7553112660197 L 121.58203125 156.47493243398145 L 123.33984375 160.1051255758236 L 125.1953125 164.5184164593661 L 127.34375 170.25279002453263 L 129.98046875 177.9745780183268 L 134.5703125 192.26790779091567 L 138.37890625 203.82414498172224 L 140.8203125 210.56932042260422 L 142.87109375 215.6150403744435 L 144.7265625 219.57510294277967 L 146.38671875 222.5592965047019 L 147.94921875 224.83808566642375 L 149.4140625 226.47645331254193 L 150.68359375 227.4891500512586 L 151.85546875 228.07896713076968 L 152.9296875 228.32421007373793 L 154.00390625 228.28503008575262 L 155.078125 227.9617058892245 L 156.15234375 227.35653757928227 L 157.32421875 226.38002358595458 L 158.69140625 224.8345294680974 L 160.25390625 222.55479706563474 L 161.9140625 219.56967576968896 L 163.671875 215.83235950039324 L 165.625 211.06968496832386 L 167.87109375 204.94032625189323 L 170.703125 196.50300770027064 L 179.78515625 168.89069462113676 L 182.03125 163.0587857084776 L 183.984375 158.61967598375287 L 185.7421875 155.21866398897086 L 187.3046875 152.7229753792972 L 188.8671875 150.76304359701393 L 190.234375 149.51097273241575 L 191.40625 148.79338256740834 L 192.48046875 148.42960037329127 L 193.5546875 148.34975729644634 L 194.62890625 148.55442133232245 L 195.703125 149.0421365219873 L 196.875 149.89287792137776 L 198.14453125 151.18152370345194 L 199.609375 153.12612392489427 L 201.171875 155.71283560933284 L 202.83203125 158.99795381764523 L 204.6875 163.25621010345628 L 206.73828125 168.577383424969 L 209.1796875 175.5669343340477 L 212.6953125 186.3845309196788 L 218.1640625 203.19962030503558 L 220.703125 210.26229552335855 L 222.75390625 215.3445703667035 L 224.609375 219.34376915562572 L 226.26953125 222.36716325963474 L 227.83203125 224.6858394211107 L 229.296875 226.363692704426 L 230.56640625 227.4118355971619 L 231.73828125 228.03506202297422 L 232.8125 228.31126366333626 L 233.88671875 228.30313447217878 L 234.9609375 228.01073227973276 L 236.03515625 227.43613720516555 L 237.20703125 226.49232259441817 L 238.4765625 225.10574325326962 L 239.94140625 223.05312218118877 L 241.50390625 220.35860371963108 L 243.1640625 216.9691003911555 L 245.01953125 212.60869328081174 L 247.16796875 206.92380221902363 L 249.8046875 199.24357633227248 L 254.00390625 186.19202244667505 L 258.203125 173.37231069578567 L 260.7421875 166.32095603834097 L 262.79296875 161.25081847499547 L 264.6484375 157.2646276143183 L 266.30859375 154.2542720640555 L 267.87109375 151.9488699115559 L 269.3359375 150.28416287974474 L 270.60546875 149.2478256543517 L 271.77734375 148.63572995096885 L 272.8515625 148.36984540617547 L 273.92578125 148.3883250693535 L 275 148.691037478077 L 276.07421875 149.27582916735884 L 277.24609375 150.2305525927179 L 278.515625 151.62859282153528 L 279.98046875 153.69383187470223 L 281.54296875 156.40091442950794 L 283.30078125 160.0183411320013 L 285.15625 164.4199524067169 L 287.3046875 170.14342398447536 L 289.94140625 177.85610286875158 L 294.43359375 191.84024790994525 L 298.33984375 203.71091769882855 L 300.87890625 210.7221284340608 L 302.9296875 215.74941045989553 L 304.78515625 219.68977891195306 L 306.4453125 222.654277196806 L 308.0078125 224.91305025747778 L 309.47265625 226.53162283013407 L 310.7421875 227.52656413396898 L 311.9140625 228.0996576268028 L 312.98828125 228.32941326656308 L 314.0625 228.2747089603904 L 315.13671875 227.93593386910078 L 316.2109375 227.31549800390138 L 317.3828125 226.32266516694563 L 318.75 224.75875555987756 L 320.3125 222.45905760371073 L 321.97265625 219.45430722167862 L 323.73046875 215.69834863491076 L 325.68359375 210.91796520450043 L 327.9296875 204.77266786358948 L 330.76171875 196.32271532839476 L 339.74609375 168.99801604811967 L 341.9921875 163.15399718419917 L 343.9453125 158.701939168864 L 345.703125 155.28761226424632 L 347.265625 152.7789782201907 L 348.828125 150.80525866867086 L 350.1953125 149.54059530467163 L 351.3671875 148.81193436654536 L 352.44140625 148.43786369120545 L 353.515625 148.34767334874277 L 354.58984375 148.542004943991 L 355.6640625 149.01947602193945 L 356.8359375 149.85922837024413 L 358.10546875 151.13629365253922 L 359.5703125 153.06809717295525 L 361.1328125 155.6420086348283 L 362.79296875 158.91469798696414 L 364.6484375 163.16074479427053 L 366.69921875 168.47078720277617 L 369.140625 175.45070413915502 L 372.65625 186.26196903213201 L 378.22265625 203.3703722221079 L 380.76171875 210.41604170366622 L 382.8125 215.48009272407973 L 384.66796875 219.4597655431384 L 386.328125 222.4635911833676 L 387.890625 224.76234818631607 L 389.35546875 226.4204762088146 L 390.625 227.45090693568744 L 391.796875 228.05743511082628 L 392.87109375 228.31816016328764 L 393.9453125 228.2945053232371 L 395.01953125 227.9866388687774 L 396.09375 227.3967509302476 L 397.265625 226.43657646100127 L 398.53515625 225.03281071619483 L 400 222.96126995462535" stroke-linecap="round" stroke-linejoin="round" stroke-miterlimit="10" stroke-width="2.5" stroke-dasharray=""/></g></g></g><g id="labels-cfc1563b"/></g></svg>