<svg version="1.1" xmlns="http://www.w3.org/2000/svg" xmlns:xlink="http://www.w3.org/1999/xlink" width="800" height="800"><defs/><g transform="scale(2,2)"><g id="background-21a7fcac"><rect fill="white" stroke="none" x="0" y="0" width="400" height="400" class="dcg-svg-background"/></g><g id="background-images-21a7fcac"/><g id="graphpaper-21a7fcac"><g id="grid-21a7fcac"><g><path fill="none" stroke="rgb(0,0,0)" class="dcg-svg-minor-gridline" paint-order="fill stroke markers" d=" M 20.5 0 L 20.5 400" stroke-opacity="0.2" stroke-miterlimit="10" stroke-dasharray=""/><path fill="none" stroke="rgb(0,0,0)" class="dcg-svg-minor-gridline" paint-order="fill stroke markers" d=" M 47.5 0 L 47.5 400" stroke-opacity="0.2" stroke-miterlimit="10" stroke-dasharray=""/><path fill="none" stroke="rgb(0,0,0)" class="dcg-svg-minor-gridline" paint-order="fill stroke markers" d=" M 74.5 0 L 74.5 400" stroke-opacity="0.2" stroke-miterlimit="10" stroke-dasharray=""/><path fill="none" stroke="rgb(0,0,0)" class="dcg-svg-minor-gridline" paint-order="fill stroke markers" d=" M 128.5 0 L 128.5 400" stroke-opacity="0.2" stroke-miterlimit="10" stroke-dasharray=""/><path fill="none" stroke="rgb(0,0,0)" class="dcg-svg-minor-gridline" paint-order="fill stroke markers" d=" M 155.5 0 L 155.5 400" stroke-opacity="0.2" stroke-miterlimit="10" stroke-dasharray=""/><path fill="none" stroke="rgb(0,0,0)" class="dcg-svg-minor-gridline" paint-order="fill stroke markers" d=" M 181.5 0 L 181.5 400" stroke-opacity="0.2" stroke-miterlimit="10" stroke-dasharray=""/><path fill="none" stroke="rgb(0,0,0)" class="dcg-svg-minor-gridline" paint-order="fill stroke markers" d=" M 208.5 0 L 208.5 400" stroke-opacity="0.2" stroke-miterlimit="10" stroke-dasharray=""/><path fill="none" stroke="rgb(0,0,0)" class="dcg-svg-minor-gridline" paint-order="fill stroke markers" d=" M 235.5 0 L 235.5 400" stroke-opacity="0.2" stroke-miterlimit="10" stroke-dasharray=""/><path fill="none" stroke="rgb(0,0,0)" class="dcg-svg-minor-gridline" paint-order="fill stroke markers" d=" M 262.5 0 L 262.5 400" stroke-opacity="0.2" stroke-miterlimit="10" stroke-dasharray=""/><path fill="none" stroke="rgb(0,0,0)" class="dcg-svg-minor-gridline" paint-order="fill stroke markers" d=" M 289.5 0 L 289.5 400" stroke-opacity="0.2" stroke-miterlimit="10" stroke-dasharray=""/><path fill="none" stroke="rgb(0,0,0)" class="dcg-svg-minor-gridline" paint-order="fill stroke markers" d=" M 316.5 0 L 316.5 400" stroke-opacity="0.2" stroke-miterlimit="10" stroke-dasharray=""/><path fill="none" stroke="rgb(0,0,0)" class="dcg-svg-minor-gridline" paint-order="fill stroke markers" d=" M 343.5 0 L 343.5 400" stroke-opacity="0.2" stroke-miterlimit="10" stroke-dasharray=""/><path fill="none" stroke="rgb(0,0,0)" class="dcg-svg-minor-gridline" paint-order="fill stroke markers" d=" M 370.5 0 L 370.5 400" stroke-opacity="0.2" stroke-miterlimit="10" stroke-dasharray=""/><path fill="none" stroke="rgb(0,0,0)" class="dcg-svg-minor-gridline" paint-order="fill stroke markers" d=" M 396.5 0 L 396.5 400" stroke-opacity="0.2" stroke-miterlimit="10" stroke-dasharray=""/><path fill="none" stroke="rgb(0,0,0)" class="dcg-svg-minor-gridline" paint-order="fill stroke markers" d=" M 0 381.5 L 400 381.5" stroke-opacity="0.2" stroke-miterlimit="10" stroke-dasharray=""/><path fill="none" stroke="rgb(0,0,0)" class="dcg-svg-minor-gridline" paint-order="fill stroke markers" d=" M 0 354.5 L 400 354.5" stroke-opacity="0.2" stroke-miterlimit="10" stroke-dasharray=""/><path fill="none" stroke="rgb(0,0,0)" class="dcg-svg-minor-gridline" paint-order="fill stroke markers" d=" M 0 327.5 L 400 327.5" stroke-opacity="0.2" stroke-miterlimit="10" stroke-dasharray=""/><path fill="none" stroke="rgb(0,0,0)" class="dcg-svg-minor-gridline" paint-order="fill stroke markers" d=" M 0 301.5 L 400 301.5" stroke-opacity="0.2" stroke-miterlimit="10" stroke-dasharray=""/><path fill="none" stroke="rgb(0,0,0)" class="dcg-svg-minor-gridline" paint-order="fill stroke markers" d=" M 0 274.5 L 400 274.5" stroke-opacity="0.2" stroke-miterlimit="10" stroke-dasharray=""/><path fill="none" stroke="rgb(0,0,0)" class="dcg-svg-minor-gridline" paint-order="fill stroke markers" d=" M 0 247.5 L 400 247.5" stroke-opacity="0.2" stroke-miterlimit="10" stroke-dasharray=""/><path fill="none" stroke="rgb(0,0,0)" class="dcg-svg-minor-gridline" paint-order="fill stroke markers" d=" M 0 220.5 L 400 220.5" stroke-opacity="0.2" stroke-miterlimit="10" stroke-dasharray=""/><path fill="none" stroke="rgb(0,0,0)" class="dcg-svg-minor-gridline" paint-order="fill stroke markers" d=" M 0 166.5 L 400 166.5" stroke-opacity="0.2" stroke-miterlimit="10" stroke-dasharray=""/><path fill="none" stroke="rgb(0,0,0)" class="dcg-svg-minor-gridline" paint-order="fill stroke markers" d=" M 0 139.5 L 400 139.5" stroke-opacity="0.2" stroke-miterlimit="10" stroke-dasharray=""/><path fill="none" stroke="rgb(0,0,0)" class="dcg-svg-minor-gridline" paint-order="fill stroke markers" d=" M 0 112.5 L 400 112.5" stroke-opacity="0.2" stroke-miterlimit="10" stroke-dasharray=""/><path fill="none" stroke="rgb(0,0,0)" class="dcg-svg-minor-gridline" paint-order="fill stroke markers" d=" M 0 86.5 L 400 86.5" stroke-opacity="0.2" stroke-miterlimit="10" stroke-dasharray=""/><path fill="none" stroke="rgb(0,0,0)" class="dcg-svg-minor-gridline" paint-order="fill stroke markers" d=" M 0 59.5 L 400 59.5" stroke-opacity="0.2" stroke-miterlimit="10" stroke-dasharray=""/><path fill="none" stroke="rgb(0,0,0)" class="dcg-svg-minor-gridline" paint-order="fill stroke markers" d=" M 0 32.5 L 400 32.5" stroke-opacity="0.2" stroke-miterlimit="10" stroke-dasharray=""/><path fill="none" stroke="rgb(0,0,0)" class="dcg-svg-minor-gridline" paint-order="fill stroke markers" d=" M 0 5.5 L 400 5.5" stroke-opacity="0.2" stroke-miterlimit="10" stroke-dasharray=""/><path fill="none" stroke="rgb(0,0,0)" class="dcg-svg-major-gridline" paint-order="fill stroke markers" d=" M 235.5 0 L 235.5 400" stroke-opacity="0.2500000000000001" stroke-miterlimit="10" stroke-dasharray=""/><path fill="none" stroke="rgb(0,0,0)" class="dcg-svg-major-gridline" paint-order="fill stroke markers" d=" M 370.5 0 L 370.5 400" stroke-opacity="0.2500000000000001" stroke-miterlimit="10" stroke-dasharray=""/><path fill="none" stroke="rgb(0,0,0)" class="dcg-svg-major-gridline" paint-order="fill stroke markers" d=" M 0 327.5 L 400 327.5" stroke-opacity="0.2500000000000001" stroke-miterlimit="10" stroke-dasharray=""/><path fill="none" stroke="rgb(0,0,0)" class="dcg-svg-major-gridline" paint-order="fill stroke markers" d=" M 0 59.5 L 400 59.5" stroke-opacity="0.2500000000000001" stroke-miterlimit="10" stroke-dasharray=""/></g></g><g id="axis-21a7fcac"><g id="yaxis-21a7fcac"><title>Y axis</title><g><path fill="none" stroke="rgb(0,0,0)" class="dcg-svg-axis-line" paint-order="fill stroke markers" d=" M 101 0 L 101 400" stroke-opacity="0.9" stroke-miterlimit="10" stroke-width="1.5" stroke-dasharray=""/></g></g><g id="xaxis-21a7fcac"><title>X axis</title><g><path fill="none" stroke="rgb(0,0,0)" class="dcg-svg-axis-line" paint-order="fill stroke markers" d=" M 0 194 L 400 194" stroke-opacity="0.9" stroke-miterlimit="10" stroke-width="1.5" stroke-dasharray=""/></g></g><g><g class="dcg-svg-axis-value"><text fill="none" stroke="#ffffff" font-family="Arial" font-size="14px" font-style="normal" font-weight="normal" text-decoration="normal" x="92.47983651413554" y="209.3588521423026" text-anchor="middle" stroke-miterlimit="2" stroke-width="3" stroke-dasharray="">0</text><text fill="#000000" stroke="none" font-family="Arial" font-size="14px" font-style="normal" font-weight="normal" text-decoration="normal" x="92.47983651413554" y="209.3588521423026" text-anchor="middle">0</text></g><g class="dcg-svg-axis-value"><text fill="none" stroke="#ffffff" font-family="Arial" font-size="14px" font-style="normal" font-weight="normal" text-decoration="normal" x="235.6924115307546" y="209.3588521423026" text-anchor="middle" stroke-miterlimit="2" stroke-width="3" stroke-dasharray="">10</text><text fill="#000000" stroke="none" font-family="Arial" font-size="14px" font-style="normal" font-weight="normal" text-decoration="normal" x="235.6924115307546" y="209.3588521423026" text-anchor="middle">10</text></g><g class="dcg-svg-axis-value"><text fill="none" stroke="#ffffff" font-family="Arial" font-size="14px" font-style="normal" font-weight="normal" text-decoration="normal" x="370.0119201411237" y="209.3588521423026" text-anchor="middle" stroke-miterlimit="2" stroke-width="3" stroke-dasharray="">20</text><text fill="#000000" stroke="none" font-family="Arial" font-size="14px" font-style="normal" font-weight="normal" text-decoration="normal" x="370.0119201411237" y="209.3588521423026" text-anchor="middle">20</text></g><g class="dcg-svg-axis-value"><text fill="none" stroke="#ffffff" font-family="Arial" font-size="14px" font-style="normal" font-weight="normal" text-decoration="normal" x="86.25571542038554" y="331.67836075267167" text-anchor="middle" stroke-miterlimit="2" stroke-width="3" stroke-dasharray="">-10</text><text fill="#000000" stroke="none" font-family="Arial" font-size="14px" font-style="normal" font-weight="normal" text-decoration="normal" x="86.25571542038554" y="331.67836075267167" text-anchor="middle">-10</text></g><g class="dcg-svg-axis-value"><text fill="none" stroke="#ffffff" font-family="Arial" font-size="14px" font-style="normal" font-weight="normal" text-decoration="normal" x="88.58677010788554" y="63.03934353193353" text-anchor="middle" stroke-miterlimit="2" stroke-width="3" stroke-dasharray="">10</text><text fill="#000000" stroke="none" font-family="Arial" font-size="14px" font-style="normal" font-weight="normal" text-decoration="normal" x="88.58677010788554" y="63.03934353193353" text-anchor="middle">10</text></g></g></g></g><g id="expressions-21a7fcac"><g id="sketch-21a7fcac"><title>Expression 1</title><path fill="#c74440" stroke="none" paint-order="stroke fill markers" d="" fill-opacity="0.4"/><g><path fill="none" stroke="#c74440" class="dcg-svg-curve" paint-order="fill stroke markers" d=" M 0 190.6029937275195 L 0 190.6029937275195 L 1.7578124999999858 190.35037739781137 L 3.61328125 190.3493730241003 L 5.56640625 190.60851768952378 L 7.91015625 191.18913453215902 L 12.6953125 192.7384083084541 L 15.52734375 193.47889821606609 L 17.67578125 193.78337070284854 L 19.62890625 193.8099642960139 L 21.582031249999986 193.57889912560304 L 23.6328125 193.06864228736805 L 25.976562499999986 192.20307814854726 L 29.39453125 190.62130855109007 L 33.300781249999986 188.87638237033624 L 35.44921875 188.1948642770704 L 37.3046875 187.86980840848685 L 38.964843749999986 187.8291496364759 L 40.625 188.04761965203377 L 42.28515625000001 188.53241576797504 L 44.04296875 189.3269298679605 L 45.99609374999999 190.51492393394653 L 48.33984375 192.27620381180654 L 52.44140625 195.78942368739206 L 55.76171874999999 198.46576321853695 L 57.91015624999999 199.85728725599108 L 59.765625 200.74098807293996 L 61.42578124999999 201.23809024653292 L 62.98828125 201.43337043301185 L 64.55078125 201.35992183729826 L 66.11328125 201.0259905895062 L 67.7734375 200.40846942729075 L 69.7265625 199.3861061161571 L 72.16796875 197.7781218733382 L 80.17578125 192.22703699617307 L 82.2265625 191.26471507817118 L 84.08203124999999 190.67477893411817 L 85.83984375 190.37695205445598 L 87.6953125 190.3314713657644 L 89.6484375 190.55109091718185 L 91.9921875 191.09858932238652 L 95.703125 192.29097120670838 L 99.21875 193.32513344829437 L 101.46484375 193.7248408019937 L 103.515625 193.82758205675978 L 105.46874999999999 193.66389601129833 L 107.51953125 193.21910697869734 L 109.765625 192.45107468684822 L 112.6953125 191.14812762943149 L 117.87109375 188.81081050655584 L 120.01953125 188.15277117208925 L 121.875 187.85384580700435 L 123.53515625 187.8397048858283 L 125.19531250000001 188.08614975322902 L 126.85546875 188.59880170624885 L 128.61328125 189.42090019911345 L 130.56640625 190.6350802774602 L 133.0078125 192.49873026788796 L 141.796875 199.56033168801852 L 143.65234375 200.53158628914014 L 145.3125 201.11686228989308 L 146.875 201.39934716969893 L 148.4375 201.41308168259877 L 150 201.1623085128996 L 151.66015625 200.62452159336635 L 153.515625 199.733606962417 L 155.76171875 198.33670653597434 L 159.375 195.70462000919545 L 163.0859375 193.0998533310096 L 165.4296875 191.78704888556683 L 167.3828125 190.98904711487657 L 169.23828125 190.51460942699643 L 170.99609375 190.32600067840488 L 172.8515625 190.3868990024476 L 174.90234375 190.72113411329894 L 177.44140625 191.41448521001394 L 184.5703125 193.528007720005 L 186.71875 193.80090784476988 L 188.671875 193.794708328678 L 190.625 193.53043833149792 L 192.67578125 192.9886461310564 L 195.1171875 192.05374749611045 L 199.12109375 190.1723824921778 L 202.34375 188.78235907183392 L 204.4921875 188.1349000672133 L 206.34765625 187.8476483034839 L 208.0078125 187.84528939673925 L 209.66796875 188.10410818732632 L 211.328125 188.6290276597675 L 213.0859375 189.46321415966975 L 215.0390625 190.68879086668642 L 217.48046875 192.56229988811717 L 226.07421875 199.4883100283032 L 227.9296875 200.47931040365188 L 229.58984375000003 201.08473806056065 L 231.15234375 201.38735805797234 L 232.71484375 201.42141139540823 L 234.27734375 201.1902060917556 L 235.9375 200.671393017183 L 237.79296875 199.7983255433436 L 239.94140625 198.48261821013705 L 243.26171875000003 196.08451273486784 L 247.4609375 193.11274357381922 L 249.8046875 191.79692283848038 L 251.7578125 190.9958454873455 L 253.61328125 190.5182855807406 L 255.37109375000003 190.3267703929839 L 257.2265625 190.3848853189329 L 259.27734375 190.71663388575405 L 261.81640625 191.40807790124433 L 268.9453125 193.52414916095302 L 271.09375 193.79963766887766 L 273.046875 193.7961065296726 L 275 193.53452161585994 L 277.05078125 192.9952613715537 L 279.4921875 192.06258921591836 L 283.49609375 190.18209569848545 L 286.71875 188.7898582628394 L 288.8671875 188.13958659033142 L 290.72265625 187.84923747455167 L 292.3828125 187.84375626420595 L 294.04296875 188.09929918063008 L 295.703125 188.6209741509025 L 297.4609375 189.45196721365926 L 299.4140625 190.67453785756956 L 301.85546875 192.5454547287631 L 310.44921875 199.47573146195793 L 312.3046875 200.4701257967939 L 313.96484375 201.07902764857846 L 315.52734375 201.38512695544827 L 317.08984375 201.4226986112387 L 318.65234375 201.19488873587648 L 320.3125 200.67937602275614 L 322.16796875 199.80942338059324 L 324.31640625 198.49633102496372 L 327.63671875000006 196.0997877241503 L 331.83593750000006 193.12565569060254 L 334.1796875 191.80682683241156 L 336.1328125 191.00267764533714 L 337.98828125 190.5219962533219 L 339.74609375000006 190.3275727909052 L 341.6015625 190.3828999200822 L 343.65234375 190.71215462995866 L 346.19140625 191.40168009148988 L 353.41796875 193.5386138585924 L 355.56640625 193.80429594679467 L 357.51953125 193.7906737127177 L 359.47265625 193.5189500306307 L 361.5234375 192.97014607527134 L 363.96484375 192.02910746095063 L 368.1640625 190.0530711272756 L 371.2890625 188.72640803382154 L 373.4375 188.10049491544638 L 375.29296875 187.83683171876214 L 376.953125 187.85816275672423 L 378.61328125 188.1417601600508 L 380.2734375 188.6911463677612 L 382.03125 189.54933090168964 L 384.08203125 190.8668500242112 L 386.62109375 192.85285943464905 L 394.3359375 199.1519874733723 L 396.2890625 200.27685198719306 L 398.046875 200.98589855629962 L 399.609375 201.34514015799357 L 400 201.39331520008844" stroke-linecap="round" stroke-linejoin="round" stroke-miterlimit="10" stroke-width="2.5" stroke-dasharray=""/></g></g></g><g id="labels-21a7fcac"/></g></svg>